<svg xmlns="http://www.w3.org/2000/svg" width="15.587" height="12.667" viewBox="0 0 15.587 12.667">
  <path id="Path_333" data-name="Path 333" d="M-197.781,425.317a6.4,6.4,0,0,1-1.837.5,3.206,3.206,0,0,0,1.406-1.769,6.408,6.408,0,0,1-2.031.776,3.194,3.194,0,0,0-2.334-1.01,3.2,3.2,0,0,0-3.2,3.2,3.214,3.214,0,0,0,.083.729,9.079,9.079,0,0,1-6.591-3.341,3.186,3.186,0,0,0-.433,1.608,3.2,3.2,0,0,0,1.423,2.661,3.184,3.184,0,0,1-1.449-.4c0,.013,0,.027,0,.04a3.2,3.2,0,0,0,2.565,3.135,3.2,3.2,0,0,1-.842.112,3.22,3.22,0,0,1-.6-.057,3.2,3.2,0,0,0,2.987,2.221,6.416,6.416,0,0,1-3.971,1.369,6.579,6.579,0,0,1-.763-.045,9.054,9.054,0,0,0,4.9,1.437,9.036,9.036,0,0,0,9.1-9.1q0-.208-.009-.414A6.514,6.514,0,0,0-197.781,425.317Z" transform="translate(213.368 -423.817)"/>
</svg>
