<svg xmlns="http://www.w3.org/2000/svg" width="30.488" height="37.293" viewBox="0 0 30.488 37.293">
  <g id="Group_325" data-name="Group 325" transform="translate(0.5 0.5)">
    <g id="Group_322" data-name="Group 322" transform="translate(11.341 7.561)">
      <path id="Path_172" data-name="Path 172" d="M739.524,374.145a9.075,9.075,0,1,1-18.147,0,9.361,9.361,0,0,1,1.078-4.37l8-15.126,7.993,15.126A9.364,9.364,0,0,1,739.524,374.145Z" transform="translate(-721.377 -354.649)" fill="none" stroke="#000" stroke-linecap="round" stroke-linejoin="round" stroke-width="1"/>
      <path id="Path_173" data-name="Path 173" d="M729.8,376.115a5.093,5.093,0,0,1-5.042-5.132" transform="translate(-720.723 -351.487)" fill="none" stroke="#000" stroke-linecap="round" stroke-linejoin="round" stroke-width="1"/>
    </g>
    <g id="Group_324" data-name="Group 324">
      <path id="Path_176" data-name="Path 176" d="M722.461,359.6a5.293,5.293,0,1,1-10.586,0,5.386,5.386,0,0,1,.628-2.532l4.664-8.757,4.663,8.757A5.389,5.389,0,0,1,722.461,359.6Z" transform="translate(-711.875 -348.314)" fill="none" stroke="#000" stroke-linecap="round" stroke-linejoin="round" stroke-width="1"/>
      <path id="Path_177" data-name="Path 177" d="M716.677,360.093a2.3,2.3,0,0,1-2.268-2.322" transform="translate(-711.384 -346.483)" fill="none" stroke="#000" stroke-linecap="round" stroke-linejoin="round" stroke-width="1"/>
    </g>
  </g>
</svg>
