<svg xmlns="http://www.w3.org/2000/svg" width="48" height="48" viewBox="0 0 48 48">
  <g id="Group_1102" data-name="Group 1102" transform="translate(-360 -287.674)">
    <path id="Path_337" data-name="Path 337" d="M408,319.674a8.99,8.99,0,0,0-14.568-7.06,23.629,23.629,0,0,0-3.838-1.277,12.5,12.5,0,1,0-11.185,0A24.038,24.038,0,0,0,360,334.674a1,1,0,0,0,1,1h46a1,1,0,0,0,1-1,23.709,23.709,0,0,0-1.94-9.432A8.966,8.966,0,0,0,408,319.674Zm-2,0a6.982,6.982,0,0,1-1.839,4.726h0a7,7,0,1,1-9.889-9.885l.005-.005A7,7,0,0,1,406,319.674Zm-32.5-19.5a10.5,10.5,0,1,1,10.5,10.5A10.512,10.512,0,0,1,373.5,300.174Zm-11.478,33.5a22.028,22.028,0,0,1,21.978-21,21.743,21.743,0,0,1,7.913,1.474,8.985,8.985,0,0,0,12.6,12.627,21.645,21.645,0,0,1,1.468,6.9Z" fill="#fff"/>
    <path id="Path_338" data-name="Path 338" d="M700,562.674a1,1,0,0,0,1,1h3v3a1,1,0,0,0,2,0v-3h3a1,1,0,0,0,0-2h-3v-3a1,1,0,0,0-2,0v3h-3A1,1,0,0,0,700,562.674Z" transform="translate(-306 -243)" fill="#fff"/>
  </g>
</svg>
