<svg xmlns="http://www.w3.org/2000/svg" width="14.166" height="11.513" viewBox="0 0 14.166 11.513">
  <path id="Path_25" data-name="Path 25" d="M-199.2,425.18a5.818,5.818,0,0,1-1.669.457,2.914,2.914,0,0,0,1.278-1.608,5.823,5.823,0,0,1-1.846.705,2.9,2.9,0,0,0-2.121-.918,2.906,2.906,0,0,0-2.906,2.906,2.923,2.923,0,0,0,.075.663,8.251,8.251,0,0,1-5.991-3.037,2.9,2.9,0,0,0-.394,1.461,2.905,2.905,0,0,0,1.293,2.419,2.893,2.893,0,0,1-1.317-.363c0,.012,0,.024,0,.037a2.908,2.908,0,0,0,2.331,2.85,2.911,2.911,0,0,1-.766.1,2.925,2.925,0,0,1-.547-.052,2.91,2.91,0,0,0,2.715,2.019,5.831,5.831,0,0,1-3.609,1.244,5.978,5.978,0,0,1-.693-.041,8.229,8.229,0,0,0,4.455,1.306,8.213,8.213,0,0,0,8.269-8.269q0-.189-.008-.376A5.919,5.919,0,0,0-199.2,425.18Z" transform="translate(213.368 -423.817)" fill="#f2f0ec"/>
</svg>
