<svg id="Group_815" data-name="Group 815" xmlns="http://www.w3.org/2000/svg" width="34.835" height="25.678" viewBox="0 0 34.835 25.678">
  <path id="Path_232" data-name="Path 232" d="M520.328,188.726c-5.749-1.857-11.579-.807-16.724.121l-.436.078c-5.479.993-11.147,2.019-16.67.232a.521.521,0,0,0-.451.072.507.507,0,0,0-.206.407v22.235a.5.5,0,0,0,.347.478,22.237,22.237,0,0,0,6.939,1.027,57.831,57.831,0,0,0,10.211-1.224c5.489-.992,11.165-2.016,16.679-.234a.5.5,0,0,0,.659-.478V189.205A.5.5,0,0,0,520.328,188.726ZM503.2,200.038l-.106.019a56.467,56.467,0,0,1-9.938,1.192,21.621,21.621,0,0,1-6.22-.845l-.091-.027V190.315l.162.046c5.485,1.516,11.093.5,16.042-.392l.151-.027Zm1.156-.209-.15.027v-4.537l.1-.019c4.172-.751,9.883-1.779,15.267-.187l.091.028v4.508l-.161-.045C514.46,198.21,509.461,198.915,504.358,199.829Zm0-5.559-.15.028V189.76l.1-.018c5.229-.938,10.332-1.656,15.267-.2l.091.028v4.516l-.161-.045C514.46,192.651,509.459,193.357,504.358,194.27Zm-11.228,18.1a21.59,21.59,0,0,1-6.192-.837l-.091-.028v-4.512l.162.046a22.733,22.733,0,0,0,6.119.781,57.916,57.916,0,0,0,10.218-1.225c5.329-.963,10.839-1.959,16.233-.362l.091.028v4.5l-.161-.046c-5.488-1.517-11-.52-16.34.445A57.022,57.022,0,0,1,493.13,212.367Zm10.038-6.764a56.949,56.949,0,0,1-10.014,1.2,21.606,21.606,0,0,1-6.216-.843l-.091-.028v-4.5l.162.045a22.693,22.693,0,0,0,6.118.782,57.9,57.9,0,0,0,10.212-1.224l.455-.082c4.87-.88,10.391-1.878,15.785-.281l.091.028v4.508l-.161-.046C514.007,203.641,508.5,204.638,503.168,205.6Z" transform="translate(-485.841 -187.699)"/>
  <path id="Path_233" data-name="Path 233" d="M490.239,194.766l-.728.383.139-.811-.589-.574.814-.118.364-.738.364.738.814.118-.589.574.139.811Z" transform="translate(-486.005 -187.964)"/>
  <path id="Path_234" data-name="Path 234" d="M500.225,194.766l-.728.383.139-.811-.589-.574.814-.118.364-.738.364.738.814.118-.589.574.139.811Z" transform="translate(-486.515 -187.964)"/>
  <path id="Path_235" data-name="Path 235" d="M495.263,195.7l-.728.383.139-.811-.589-.574.814-.118.364-.738.364.738.814.118-.589.574.139.811Z" transform="translate(-486.261 -188.012)"/>
  <path id="Path_236" data-name="Path 236" d="M490.239,198.57l-.728.383.139-.811-.589-.574.814-.118.364-.738.364.738.814.118-.589.574.139.811Z" transform="translate(-486.005 -188.158)"/>
  <path id="Path_237" data-name="Path 237" d="M500.225,198.57l-.728.383.139-.811-.589-.574.814-.118.364-.738.364.738.814.118-.589.574.139.811Z" transform="translate(-486.515 -188.158)"/>
  <path id="Path_238" data-name="Path 238" d="M495.263,199.508l-.728.383.139-.811-.589-.574.814-.118.364-.738.364.738.814.118-.589.574.139.811Z" transform="translate(-486.261 -188.206)"/>
</svg>
