<svg id="Group_1083" data-name="Group 1083" xmlns="http://www.w3.org/2000/svg" width="17.278" height="17.38" viewBox="0 0 17.278 17.38">
  <path id="Path_334" data-name="Path 334" d="M641.824,272.629h-2.287v-2.287h-1.169v2.287h-2.287v1.118h2.287v2.287h1.169v-2.287h2.287Z" transform="translate(-624.546 -264.904)"/>
  <path id="Path_335" data-name="Path 335" d="M607.991,262.684l-.833-.636a1.25,1.25,0,0,1-.6-.979,1.6,1.6,0,0,1,.647-1.116,3.844,3.844,0,0,0,1.94-3.231,3.638,3.638,0,0,0-1.583-3h1.369l1.5-.914h-4.815a6.592,6.592,0,0,0-4.248,1.2,4.037,4.037,0,0,0-1.318,3.125,3.627,3.627,0,0,0,3.834,3.572c.231,0,.484-.023.739-.045a2.021,2.021,0,0,0-.231.888,2.37,2.37,0,0,0,.694,1.546,10.074,10.074,0,0,0-4.411,1.047,3.269,3.269,0,0,0-1.779,2.777c0,1.685,1.55,3.271,4.9,3.271,3.972,0,6.14-2.178,6.14-4.317C609.93,264.3,609.007,263.527,607.991,262.684Zm-3.026-2.559c-1.987,0-2.888-2.526-2.888-4.05a2.76,2.76,0,0,1,.507-1.741,2.123,2.123,0,0,1,1.618-.694c1.916,0,2.909,2.549,2.909,4.187a2.158,2.158,0,0,1-.577,1.6A2.435,2.435,0,0,1,604.965,260.125Zm.02,9.092c-2.471,0-4.065-1.161-4.065-2.777a2.572,2.572,0,0,1,1.986-2.344,9.379,9.379,0,0,1,2.426-.365,3.7,3.7,0,0,1,.53.023c1.757,1.229,2.519,1.842,2.519,3C608.381,268.169,607.2,269.217,604.985,269.217Z" transform="translate(-598.89 -252.809)"/>
</svg>
