<svg xmlns="http://www.w3.org/2000/svg" width="37.873" height="35.49" viewBox="0 0 37.873 35.49">
  <g id="Group_318" data-name="Group 318" transform="translate(0.566 0.637)">
    <g id="Group_316" data-name="Group 316" transform="translate(0)">
      <path id="Path_155" data-name="Path 155" d="M666.8,351.2c-10.478,7.663-16.168,18.6-18.358,31.8a67.182,67.182,0,0,0,36.716,0Q680.815,363.24,666.8,351.2Z" transform="translate(-648.442 -351.198)" fill="none" stroke="#000" stroke-miterlimit="10" stroke-width="1"/>
    </g>
    <ellipse id="Ellipse_26" data-name="Ellipse 26" cx="0.952" cy="0.952" rx="0.952" ry="0.952" transform="translate(17.405 5.275)"/>
    <ellipse id="Ellipse_27" data-name="Ellipse 27" cx="0.952" cy="0.952" rx="0.952" ry="0.952" transform="translate(4.354 27.656)"/>
    <ellipse id="Ellipse_28" data-name="Ellipse 28" cx="0.952" cy="0.952" rx="0.952" ry="0.952" transform="translate(30.068 27.656)"/>
    <g id="Group_317" data-name="Group 317" transform="translate(9.418 11.61)">
      <path id="Path_156" data-name="Path 156" d="M668.238,365.3l.995-1.911,1.583.448-.125,2.2,1.1.639,1.848-1.212,1.159,1.158-1.211,1.847.637,1.1,2.206-.125.437,1.582-1.911.995V373.3l1.911.995-.448,1.583-2.2-.125-.639,1.1L674.8,378.7l-1.158,1.159-1.847-1.211-1.1.637.125,2.206-1.582.437-.995-1.911h-1.275l-.995,1.911-1.583-.448.125-2.2-1.1-.639-1.848,1.212L660.4,378.7l1.211-1.847-.637-1.1-2.205.125-.437-1.582,1.911-.995v-1.275l-1.911-.995.448-1.583,2.2.125.639-1.1-1.212-1.848,1.158-1.159,1.847,1.211,1.1-.637-.125-2.206,1.582-.437.995,1.911Z" transform="translate(-658.331 -363.389)" fill="none" stroke="#000" stroke-linejoin="round" stroke-width="1"/>
      <ellipse id="Ellipse_29" data-name="Ellipse 29" cx="2.915" cy="2.915" rx="2.915" ry="2.915" transform="translate(6.355 6.355)" fill="none" stroke="#000" stroke-linejoin="round" stroke-width="1"/>
    </g>
  </g>
</svg>
