<svg id="Group_321" data-name="Group 321" xmlns="http://www.w3.org/2000/svg" width="36.2" height="36.2" viewBox="0 0 36.2 36.2">
  <path id="Path_168" data-name="Path 168" d="M1000.234,417.243a.44.44,0,0,0,0-.624L999,415.38l3.544-3.544a.441.441,0,1,0-.624-.624l-3.544,3.544-2.215-2.216L999.7,409a.441.441,0,0,0-.624-.624l-3.543,3.543-1.239-1.239a.442.442,0,0,0-.624.625l.5.494-1.76,1.759.552.7,1.832-1.831.431.432h0l3.291,3.292-2.255,2.255.553.7,2.328-2.327.474.474a.44.44,0,0,0,.624,0Z" transform="translate(-979.778 -404.533)"/>
  <path id="Path_169" data-name="Path 169" d="M1011.867,413.094a18.193,18.193,0,0,0-1.292-1.914.437.437,0,0,0-.139-.175,18.053,18.053,0,0,0-23.283-4.533,18.352,18.352,0,0,0-2.133,1.467.423.423,0,0,0-.078.039.419.419,0,0,0-.057.068,18.078,18.078,0,0,0,6.633,31.57,18.2,18.2,0,0,0,4.713.624,17.99,17.99,0,0,0,9.016-2.431,18.364,18.364,0,0,0,2.158-1.486c.018-.011.039-.006.056-.019a.429.429,0,0,0,.063-.075,18.053,18.053,0,0,0,4.344-23.134Zm-7.062,23.951a17.2,17.2,0,0,1-19.649-28.088l21.4,26.915A17.628,17.628,0,0,1,1004.8,437.045Zm8.018-10.45a17.077,17.077,0,0,1-5.578,8.729l-21.4-26.916a17.471,17.471,0,0,1,1.747-1.171,17.111,17.111,0,0,1,8.576-2.313,17.3,17.3,0,0,1,4.482.593,17.073,17.073,0,0,1,9.107,6.055,18.29,18.29,0,0,1-3.752,13.1,6.219,6.219,0,0,0-7.934-2.366l.576.725a6.207,6.207,0,0,1,2.14-.394,5.054,5.054,0,0,1,4.619,2.771,13.611,13.611,0,0,1-2.851,2.538l.553.7a14.235,14.235,0,0,0,2.69-2.311,4.913,4.913,0,0,1-.853,4.624l.572.719a5.851,5.851,0,0,0,.939-6.1,19.3,19.3,0,0,0,4.3-12.562c.112.178.236.346.341.529A17.1,17.1,0,0,1,1012.823,426.595Z" transform="translate(-978.1 -404.04)"/>
  <path id="Path_170" data-name="Path 170" d="M1002.877,432.454l-.6-.76c-2.141.508-3.575-.422-4.069-1.682a2.723,2.723,0,0,1,.469-2.846l-.548-.689a3.657,3.657,0,0,0-.743,3.857C998.033,431.992,1000.022,433.314,1002.877,432.454Z" transform="translate(-980.331 -406.672)"/>
  <path id="Path_171" data-name="Path 171" d="M990.242,432.815a8.126,8.126,0,0,1,.35-11.483,3.444,3.444,0,0,0,3.555.432l-.589-.74a2.687,2.687,0,0,1-2.7-.607,2.636,2.636,0,0,1-.37-3.249l-.571-.718a3.511,3.511,0,0,0,.044,4.257c-2.946,3.125-4.286,8.311-.382,12.694a10.78,10.78,0,0,0,8.19,3.56,12.362,12.362,0,0,0,6.83-2.043l-.553-.7C1000.158,436.815,993.972,437,990.242,432.815Z" transform="translate(-979.164 -405.496)"/>
</svg>
