<svg id="Group_159" data-name="Group 159" xmlns="http://www.w3.org/2000/svg" width="13.618" height="13.618" viewBox="0 0 13.618 13.618">
  <path id="Path_26" data-name="Path 26" d="M-72.763,423.549c1.818,0,2.033.007,2.751.04a3.761,3.761,0,0,1,1.264.234,2.1,2.1,0,0,1,.783.509,2.108,2.108,0,0,1,.509.783,3.762,3.762,0,0,1,.234,1.264c.033.718.04.933.04,2.751s-.007,2.034-.04,2.752a3.759,3.759,0,0,1-.234,1.264,2.109,2.109,0,0,1-.509.783,2.108,2.108,0,0,1-.783.509,3.766,3.766,0,0,1-1.264.235c-.718.033-.933.039-2.751.039s-2.033-.007-2.751-.039a3.766,3.766,0,0,1-1.264-.235,2.108,2.108,0,0,1-.783-.509,2.109,2.109,0,0,1-.509-.783,3.76,3.76,0,0,1-.234-1.264c-.033-.718-.04-.933-.04-2.752s.007-2.033.04-2.751a3.762,3.762,0,0,1,.234-1.264,2.108,2.108,0,0,1,.509-.783,2.1,2.1,0,0,1,.783-.509,3.76,3.76,0,0,1,1.264-.234c.718-.033.933-.04,2.752-.04m0-1.227c-1.849,0-2.081.008-2.807.041a5,5,0,0,0-1.653.316,3.339,3.339,0,0,0-1.206.785,3.338,3.338,0,0,0-.785,1.206,5,5,0,0,0-.316,1.653c-.033.726-.041.958-.041,2.807s.008,2.081.041,2.807a4.992,4.992,0,0,0,.316,1.653,3.338,3.338,0,0,0,.785,1.206,3.337,3.337,0,0,0,1.206.785,4.992,4.992,0,0,0,1.653.316c.726.033.958.041,2.807.041s2.081-.008,2.807-.041a4.992,4.992,0,0,0,1.653-.316A3.337,3.337,0,0,0-67.1,434.8a3.338,3.338,0,0,0,.785-1.206A5,5,0,0,0-66,431.938c.033-.726.041-.958.041-2.807s-.008-2.081-.041-2.807a5.006,5.006,0,0,0-.316-1.653,3.338,3.338,0,0,0-.785-1.206,3.339,3.339,0,0,0-1.206-.785,5,5,0,0,0-1.653-.316c-.726-.033-.958-.041-2.807-.041Z" transform="translate(79.572 -422.322)" fill="#f2f0ec"/>
  <path id="Path_27" data-name="Path 27" d="M-67.169,431.229a3.5,3.5,0,0,0-3.5,3.5,3.5,3.5,0,0,0,3.5,3.5,3.5,3.5,0,0,0,3.5-3.5A3.5,3.5,0,0,0-67.169,431.229Zm0,5.766a2.269,2.269,0,0,1-2.27-2.27,2.27,2.27,0,0,1,2.27-2.27,2.27,2.27,0,0,1,2.27,2.27A2.269,2.269,0,0,1-67.169,437Z" transform="translate(73.977 -427.917)" fill="#f2f0ec"/>
  <circle id="Ellipse_5" data-name="Ellipse 5" cx="0.817" cy="0.817" r="0.817" transform="translate(9.626 2.357)" fill="#f2f0ec"/>
</svg>
