<svg xmlns="http://www.w3.org/2000/svg" width="35.532" height="29.695" viewBox="0 0 35.532 29.695">
  <g id="Group_319" data-name="Group 319" transform="translate(0.5 0.5)">
    <path id="Path_157" data-name="Path 157" d="M582.12,367.731H571.61a1.5,1.5,0,0,0-1.5,1.5v15.013a1.5,1.5,0,0,0,1.5,1.5h9.008" transform="translate(-570.109 -362.016)" fill="none" stroke="#000" stroke-miterlimit="10" stroke-width="1"/>
    <path id="Path_158" data-name="Path 158" d="M589.119,385.747h11.26a1.5,1.5,0,0,0,1.5-1.5V369.232a1.5,1.5,0,0,0-1.5-1.5H590.62" transform="translate(-571.102 -362.016)" fill="none" stroke="#000" stroke-miterlimit="10" stroke-width="1"/>
    <path id="Path_159" data-name="Path 159" d="M602.584,372.483h2.252a1.5,1.5,0,0,1,1.5,1.5v6.006a1.5,1.5,0,0,1-1.5,1.5h-2.252" transform="translate(-571.806 -362.264)" fill="none" stroke="#000" stroke-miterlimit="10" stroke-width="1"/>
    <path id="Path_160" data-name="Path 160" d="M586.725,373.612l2.15-11.911-11.844,17.811,7.213-1.027-2.15,11.911,11.844-17.811Z" transform="translate(-570.471 -361.701)" fill="none" stroke="#000" stroke-linejoin="round" stroke-width="1"/>
  </g>
</svg>
