<svg xmlns="http://www.w3.org/2000/svg" width="175" height="28.657" viewBox="0 0 175 28.657" style="fill: #E9E6E1;">
  <g id="Group_1" data-name="Group 1" transform="translate(-224.659 -184.68)">
    <path id="Path_1" data-name="Path 1" d="M306.039,185.293s13.064-.134,19.546.045c4.741.132,8.866,1.688,11.688,5.187a11.971,11.971,0,0,1,2.43,5.908,15.145,15.145,0,0,1-.319,6.292c-1.309,4.81-4.7,7.926-10.285,9.091a32.466,32.466,0,0,1-6.086.617c-5.427.083-17.009.037-17.009.037Zm10.622,7.186-.013,12.786s4.64.025,6.633-.122c2.873-.212,4.73-1.321,5.469-3.7a9.069,9.069,0,0,0,.13-4.7,5.314,5.314,0,0,0-5.253-4.222C321.352,192.381,316.661,192.479,316.661,192.479Z" transform="translate(6.159 0.043)"/>
    <path id="Path_2" data-name="Path 2" d="M353.168,185.485V212.5H342.523V185.485Z" transform="translate(8.924 0.061)"/>
    <path id="Path_3" data-name="Path 3" d="M268.12,185.39l10.925-.009,12.293,14.532h.182V185.427h10.163l.013,27.081-10.67-.04-12.64-14.619H278.2v14.61H268.12Z" transform="translate(3.291 0.053)"/>
    <path id="Path_4" data-name="Path 4" d="M359.106,202.954c1.038.388,2.049.777,3,1.118a37.5,37.5,0,0,0,13.271,2.328,13.4,13.4,0,0,0,2.574-.339c.884-.187,1.323-.665,1.336-1.247a1.456,1.456,0,0,0-1.269-1.3c-1.63-.394-3.278-.735-4.924-1.078-2.812-.585-5.659-1.059-8.429-1.761-2.282-.579-4.245-1.73-5.113-3.736-1.615-3.727-.283-7.988,4.171-10.211a20.887,20.887,0,0,1,8.027-1.951,38.5,38.5,0,0,1,12.648,1.192c.876.233,2.087.62,2.942.906,0,0,.014,5.133.014,7.657-.855-.322-1.614-.627-2.389-.9a34.078,34.078,0,0,0-10.639-2.022,9.208,9.208,0,0,0-3.75.417,2.56,2.56,0,0,0-1.087.873.869.869,0,0,0,.543,1.332,16.954,16.954,0,0,0,2.736.765c2.616.512,5.266.91,7.868,1.474a15.988,15.988,0,0,1,6.271,2.549,6.191,6.191,0,0,1,2.552,5.925c-.365,3.934-3.017,6.257-7.245,7.468a32.176,32.176,0,0,1-9.933.885,49.114,49.114,0,0,1-13.185-2.528Z" transform="translate(10.164 0)"/>
    <path id="Path_5" data-name="Path 5" d="M251.269,185.348H240.487L224.659,212.43l10.947.08,2.826-4.974h14.893l2.826,4.974,10.945-.08Zm-8.987,15.837,3.6-6.473,3.6,6.473Z" transform="translate(0 0.051)"/>
  </g>
</svg>
