<svg id="Group_1699" data-name="Group 1699" xmlns="http://www.w3.org/2000/svg" width="177.9" height="178.18" viewBox="0 0 177.9 178.18">
  <g id="Group_1698" data-name="Group 1698">
    <path id="Path_422" data-name="Path 422" d="M393.246,575.947a3.317,3.317,0,0,0,.7-1.313,3.21,3.21,0,0,0,.052-1.185,3.9,3.9,0,0,0-.533-1.517,3.614,3.614,0,0,0-1.023-1.076,3.878,3.878,0,0,0-1.377-.592,4.4,4.4,0,0,0-1.593-.048,4.837,4.837,0,0,0-1.607.516,3.9,3.9,0,0,0-1.191.967,3.643,3.643,0,0,0-.687,1.327,3.825,3.825,0,0,0-.085,1.606,2.917,2.917,0,0,0,.514,1.264,3.631,3.631,0,0,0,1.2,1.035l-.925,1.8a4.512,4.512,0,0,1-1.775-1.616,5.8,5.8,0,0,1-.807-2.238,6.548,6.548,0,0,1,.07-2.422,5.354,5.354,0,0,1,2.556-3.507,6.253,6.253,0,0,1,2.307-.786,6.5,6.5,0,0,1,2.488.085,5.494,5.494,0,0,1,2.037.945,5.382,5.382,0,0,1,1.455,1.677,6.594,6.594,0,0,1,.761,2.3,5.464,5.464,0,0,1-.094,2.153,4.942,4.942,0,0,1-1.094,1.995Z" transform="translate(-218.392 -495.956)" fill="#f2f0ec"/>
    <path id="Path_423" data-name="Path 423" d="M396.122,579.3l-.013,3.9a7.906,7.906,0,0,1-.156,1.563,4,4,0,0,1-.52,1.336,2.693,2.693,0,0,1-.987.933,3.171,3.171,0,0,1-1.57.343,3.137,3.137,0,0,1-2.044-.68,2.894,2.894,0,0,1-.992-1.931l-4.974,2.964.008-2.41,4.768-2.585,0-1.458-4.758-.018.007-2Zm-4.769,3.535c0,.285.011.571.036.856a2.649,2.649,0,0,0,.187.786,1.335,1.335,0,0,0,.457.58,1.465,1.465,0,0,0,.864.226,1.383,1.383,0,0,0,.793-.2,1.3,1.3,0,0,0,.454-.538,2.443,2.443,0,0,0,.2-.737,6.1,6.1,0,0,0,.052-.784l.006-1.729-3.045-.012Z" transform="translate(-218.223 -493.677)" fill="#f2f0ec"/>
    <path id="Path_424" data-name="Path 424" d="M395.931,590.161l-1.073,7.359-1.789-.261.786-5.381-2.732-.4-.743,5.1-1.79-.262.744-5.1-3.013-.441-.826,5.665-1.789-.26,1.115-7.642Z" transform="translate(-218.459 -491.785)" fill="#f2f0ec"/>
    <path id="Path_425" data-name="Path 425" d="M393.329,604.438l-.506,1.654-12.152,1.343.669-2.184,2.76-.25,1.424-4.655-2.16-1.721.652-2.139Zm-7.386.4,4.874-.318-3.855-3.018Z" transform="translate(-219.077 -490.166)" fill="#f2f0ec"/>
    <path id="Path_426" data-name="Path 426" d="M388.164,611.989l1.427-3.131,1.645.748-3.678,8.084-1.644-.749,1.424-3.131-8.573-3.9.826-1.819Z" transform="translate(-219.466 -487.801)" fill="#f2f0ec"/>
    <path id="Path_427" data-name="Path 427" d="M386.691,620.091l-3.98,6.283-1.527-.968,2.91-4.6-2.329-1.476-2.759,4.353-1.528-.967,2.758-4.353-2.57-1.63-3.064,4.836-1.528-.968,4.133-6.524Z" transform="translate(-220.626 -486.578)" fill="#f2f0ec"/>
    <path id="Path_428" data-name="Path 428" d="M370.28,630.485l7.528,1.542L376.04,633.8l-5.114-1.2,1.2,5.132-1.678,1.685-1.575-7.521-3.4-3.39,1.41-1.416Z" transform="translate(-222.177 -483.926)" fill="#f2f0ec"/>
    <path id="Path_429" data-name="Path 429" d="M366.553,635.835a6.521,6.521,0,0,1,1.069,2.248,5.464,5.464,0,0,1,.1,2.243,5.4,5.4,0,0,1-.82,2.066,6.549,6.549,0,0,1-1.69,1.735,6.669,6.669,0,0,1-2.184,1.093,5.267,5.267,0,0,1-2.222.143,5.441,5.441,0,0,1-2.1-.8,6.442,6.442,0,0,1-1.787-1.723,6.244,6.244,0,0,1-1.039-2.2,5.492,5.492,0,0,1-.079-2.227,5.67,5.67,0,0,1,.822-2.089,6.653,6.653,0,0,1,1.694-1.773,6.556,6.556,0,0,1,2.18-1.055,5.353,5.353,0,0,1,4.291.654A6.227,6.227,0,0,1,366.553,635.835Zm-1.626,1.327a4.818,4.818,0,0,0-1.2-1.189,3.9,3.9,0,0,0-1.406-.609,3.632,3.632,0,0,0-1.494,0,3.8,3.8,0,0,0-1.466.665,3.879,3.879,0,0,0-1.1,1.185,3.617,3.617,0,0,0-.482,1.419,3.915,3.915,0,0,0,.132,1.528,4.85,4.85,0,0,0,.748,1.514,4.408,4.408,0,0,0,1.143,1.112,3.934,3.934,0,0,0,1.383.577,3.618,3.618,0,0,0,1.49-.019,3.963,3.963,0,0,0,1.469-.675,3.91,3.91,0,0,0,1.1-1.174,3.618,3.618,0,0,0,.483-1.4,3.87,3.87,0,0,0-.108-1.494A4.363,4.363,0,0,0,364.927,637.161Z" transform="translate(-224.163 -482.659)" fill="#f2f0ec"/>
    <path id="Path_430" data-name="Path 430" d="M346.61,646.057a4.633,4.633,0,0,1-.482-1.8,4.105,4.105,0,0,1,.254-1.664,4.192,4.192,0,0,1,.9-1.412,5.15,5.15,0,0,1,1.48-1.058,5.086,5.086,0,0,1,1.749-.5,4.268,4.268,0,0,1,1.675.169,3.945,3.945,0,0,1,1.46.836,4.693,4.693,0,0,1,1.1,1.5l3.087,6.4-1.8.868-3.061-6.34a3.145,3.145,0,0,0-.489-.725,2.49,2.49,0,0,0-.74-.567,2.251,2.251,0,0,0-.973-.225,2.6,2.6,0,0,0-1.185.3,2.654,2.654,0,0,0-.973.742,2.23,2.23,0,0,0-.425.9,2.383,2.383,0,0,0-.018.932,3.169,3.169,0,0,0,.261.833l3.06,6.342-1.8.868Z" transform="translate(-226.121 -481.376)" fill="#f2f0ec"/>
    <path id="Path_431" data-name="Path 431" d="M346.837,653.679l-3.73,1.138a8.069,8.069,0,0,1-1.54.311,4.069,4.069,0,0,1-1.433-.1,2.721,2.721,0,0,1-1.182-.668,3.174,3.174,0,0,1-.79-1.4,3.121,3.121,0,0,1,.048-2.154,2.888,2.888,0,0,1,1.552-1.517l-4.3-3.88,2.307-.7,3.874,3.795,1.4-.426-1.388-4.549,1.912-.584Zm-4.784-3.516c-.273.084-.543.179-.807.289a2.58,2.58,0,0,0-.7.411,1.319,1.319,0,0,0-.418.608,1.437,1.437,0,0,0,.039.892,1.375,1.375,0,0,0,.429.7,1.275,1.275,0,0,0,.648.274,2.515,2.515,0,0,0,.762-.024,7.107,7.107,0,0,0,.764-.184l1.654-.5-.888-2.912Z" transform="translate(-228.294 -480.696)" fill="#f2f0ec"/>
    <path id="Path_432" data-name="Path 432" d="M332.369,657.543l-2.186.085-2.428-8h-.031l-2.2,8.18-1.966.077-2.792-7.983h-.033l-1.88,8.169-2.029.081,2.818-11.349,1.9-.075,2.939,8.438h.031l2.26-8.644,1.838-.073Z" transform="translate(-232.093 -479.979)" fill="#f2f0ec"/>
    <path id="Path_433" data-name="Path 433" d="M311.326,657.367l-1.711-.246-3.194-11.8,2.261.325.671,2.692,4.819.691,1.37-2.4,2.213.317Zm-1.525-7.236,1.062,4.766,2.392-4.27Z" transform="translate(-234.215 -480.21)" fill="#f2f0ec"/>
    <path id="Path_434" data-name="Path 434" d="M303.407,649.062l2.272,7.34-2.408-.695-1.41-5.061-3.922,3.522-2.285-.66,5.834-5,1.33-4.617,1.921.555Z" transform="translate(-236.41 -480.502)" fill="#f2f0ec"/>
    <path id="Path_435" data-name="Path 435" d="M249.318,588.5a3.341,3.341,0,0,0-.734,1.3,3.245,3.245,0,0,0-.078,1.183,3.894,3.894,0,0,0,.5,1.529,3.6,3.6,0,0,0,1,1.1,3.871,3.871,0,0,0,1.364.622,4.41,4.41,0,0,0,1.593.083,4.852,4.852,0,0,0,1.618-.48,3.9,3.9,0,0,0,1.21-.941,3.634,3.634,0,0,0,.716-1.311,3.794,3.794,0,0,0,.122-1.6,2.887,2.887,0,0,0-.486-1.275,3.625,3.625,0,0,0-1.177-1.061l.962-1.782a4.52,4.52,0,0,1,1.74,1.654,5.788,5.788,0,0,1,.757,2.255,6.554,6.554,0,0,1-.124,2.421,5.341,5.341,0,0,1-2.633,3.449,6.187,6.187,0,0,1-2.322.737,6.517,6.517,0,0,1-2.485-.141,5.464,5.464,0,0,1-2.015-.99,5.367,5.367,0,0,1-1.419-1.709,6.569,6.569,0,0,1-.71-2.316,5.468,5.468,0,0,1,.141-2.151,4.941,4.941,0,0,1,1.139-1.969Z" transform="translate(-246.396 -492.332)" fill="#f2f0ec"/>
    <path id="Path_436" data-name="Path 436" d="M246.442,584.678l.1-3.9a7.737,7.737,0,0,1,.191-1.558,3.982,3.982,0,0,1,.549-1.327,2.709,2.709,0,0,1,1.006-.91,3.2,3.2,0,0,1,1.579-.308,3.127,3.127,0,0,1,2.027.728,2.891,2.891,0,0,1,.949,1.951l5.038-2.851-.061,2.409L253,581.39l-.04,1.458,4.758.124-.052,2Zm4.848-3.427c.006-.285,0-.571-.019-.858a2.6,2.6,0,0,0-.169-.789,1.349,1.349,0,0,0-.445-.591,1.462,1.462,0,0,0-.858-.243,1.382,1.382,0,0,0-.8.185,1.279,1.279,0,0,0-.465.527,2.484,2.484,0,0,0-.218.732,6.6,6.6,0,0,0-.067.784l-.046,1.728,3.046.078Z" transform="translate(-246.442 -494.239)" fill="#f2f0ec"/>
    <path id="Path_437" data-name="Path 437" d="M247.035,573.949l1.238-7.334,1.783.3-.907,5.363,2.721.46.86-5.082,1.783.3-.86,5.081,3,.508.953-5.645,1.783.3-1.287,7.613Z" transform="translate(-246.321 -496.255)" fill="#f2f0ec"/>
    <path id="Path_438" data-name="Path 438" d="M250,560.064l.541-1.641,12.178-1.076L262,559.515l-2.768.19-1.525,4.623,2.121,1.768-.7,2.124Zm7.389-.234-4.878.211,3.785,3.1Z" transform="translate(-245.718 -498.145)" fill="#f2f0ec"/>
    <path id="Path_439" data-name="Path 439" d="M255.325,552.416l-1.494,3.1-1.629-.786,3.858-8,1.628.786-1.494,3.1,8.484,4.091-.868,1.8Z" transform="translate(-245.268 -500.309)" fill="#f2f0ec"/>
    <path id="Path_440" data-name="Path 440" d="M257.143,544.833l4.117-6.194,1.5,1-3.011,4.529,2.3,1.529,2.853-4.292,1.5,1-2.853,4.291,2.535,1.685,3.169-4.767,1.506,1-4.275,6.431Z" transform="translate(-244.26 -501.959)" fill="#f2f0ec"/>
    <path id="Path_441" data-name="Path 441" d="M273.591,534.763l-7.492-1.711,1.808-1.734,5.086,1.312-1.086-5.16,1.717-1.647,1.407,7.554,3.329,3.465-1.44,1.385Z" transform="translate(-242.435 -504.571)" fill="#f2f0ec"/>
    <path id="Path_442" data-name="Path 442" d="M277.374,529.473a6.467,6.467,0,0,1-1.021-2.272,5.483,5.483,0,0,1-.051-2.244,5.388,5.388,0,0,1,.864-2.047,6.583,6.583,0,0,1,1.73-1.7,6.658,6.658,0,0,1,2.207-1.044,5.241,5.241,0,0,1,2.225-.1,5.464,5.464,0,0,1,2.079.844,6.425,6.425,0,0,1,1.748,1.761,6.2,6.2,0,0,1,.99,2.225,5.463,5.463,0,0,1,.03,2.23,5.616,5.616,0,0,1-.869,2.069,6.681,6.681,0,0,1-1.731,1.737,6.571,6.571,0,0,1-2.205,1,5.36,5.36,0,0,1-4.275-.748A6.217,6.217,0,0,1,277.374,529.473Zm1.653-1.289A4.832,4.832,0,0,0,280.2,529.4a3.936,3.936,0,0,0,1.393.642,3.662,3.662,0,0,0,1.493.031,3.8,3.8,0,0,0,1.481-.631,3.907,3.907,0,0,0,1.128-1.159,3.642,3.642,0,0,0,.513-1.41,3.928,3.928,0,0,0-.1-1.53,4.8,4.8,0,0,0-.713-1.529,4.407,4.407,0,0,0-1.117-1.138,3.929,3.929,0,0,0-1.37-.608,3.6,3.6,0,0,0-1.492-.016,4.211,4.211,0,0,0-2.609,1.79,3.639,3.639,0,0,0-.514,1.394,3.915,3.915,0,0,0,.073,1.5A4.394,4.394,0,0,0,279.027,528.184Z" transform="translate(-240.373 -505.759)" fill="#f2f0ec"/>
    <path id="Path_443" data-name="Path 443" d="M297.487,519.808a4.61,4.61,0,0,1,.441,1.812,4.076,4.076,0,0,1-.291,1.658,4.175,4.175,0,0,1-.934,1.391,5.338,5.338,0,0,1-3.262,1.484,4.252,4.252,0,0,1-1.671-.2,3.968,3.968,0,0,1-1.441-.87,4.715,4.715,0,0,1-1.068-1.527l-2.942-6.465,1.819-.827,2.915,6.407a3.182,3.182,0,0,0,.474.734,2.407,2.407,0,0,0,.727.584,2.257,2.257,0,0,0,.968.249,3.033,3.033,0,0,0,2.179-.993,2.246,2.246,0,0,0,.447-.891,2.412,2.412,0,0,0,.039-.932,3.123,3.123,0,0,0-.243-.838l-2.916-6.411,1.819-.827Z" transform="translate(-238.313 -507.116)" fill="#f2f0ec"/>
    <path id="Path_444" data-name="Path 444" d="M297.35,512.089l3.757-1.053a8.011,8.011,0,0,1,1.543-.277,4.051,4.051,0,0,1,1.429.134,2.723,2.723,0,0,1,1.168.695,3.181,3.181,0,0,1,.76,1.418,3.127,3.127,0,0,1-.1,2.15,2.888,2.888,0,0,1-1.585,1.483l4.211,3.973-2.321.651-3.789-3.877-1.4.394,1.283,4.579-1.923.541Zm4.706,3.621c.274-.077.545-.167.814-.268a2.63,2.63,0,0,0,.7-.4,1.324,1.324,0,0,0,.432-.6,1.457,1.457,0,0,0-.018-.891,1.384,1.384,0,0,0-.414-.708,1.274,1.274,0,0,0-.64-.29,2.5,2.5,0,0,0-.763.008,6.736,6.736,0,0,0-.771.166l-1.663.467.822,2.931Z" transform="translate(-236.064 -507.645)" fill="#f2f0ec"/>
    <path id="Path_445" data-name="Path 445" d="M312.621,508.439l2.187-.039,2.25,8.05h.031l2.382-8.13,1.965-.034,2.614,8.043h.033l2.062-8.124,2.031-.035L325.1,519.451l-1.9.034-2.747-8.5h-.031l-2.453,8.591-1.839.031Z" transform="translate(-232.951 -508.17)" fill="#f2f0ec"/>
    <path id="Path_446" data-name="Path 446" d="M332.959,509.158l1.7.284,2.931,11.868-2.251-.374-.613-2.706-4.8-.8-1.422,2.368-2.206-.367Zm1.364,7.268-.956-4.788-2.486,4.217Z" transform="translate(-230.162 -507.969)" fill="#f2f0ec"/>
    <path id="Path_447" data-name="Path 447" d="M340.439,517.737l-2.107-7.388,2.39.749,1.3,5.092,4-3.433,2.27.709-5.946,4.868-1.434,4.587-1.908-.6Z" transform="translate(-227.709 -507.726)" fill="#f2f0ec"/>
  </g>
</svg>
