<svg xmlns="http://www.w3.org/2000/svg" width="128.379" height="128.304" viewBox="0 0 128.379 128.304">
  <g id="Group_1319" data-name="Group 1319" transform="translate(-463.416 -159.371)">
    <g id="Group_474" data-name="Group 474" transform="translate(498.756 204.014)">
      <path id="Path_232" data-name="Path 232" d="M543.11,189.4c-9.547-3.084-19.228-1.34-27.773.2l-.723.129c-9.1,1.648-18.511,3.354-27.683.386a.865.865,0,0,0-.749.12.841.841,0,0,0-.342.676v36.924a.83.83,0,0,0,.577.794,36.929,36.929,0,0,0,11.523,1.705,96.038,96.038,0,0,0,16.957-2.033c9.115-1.647,18.541-3.347,27.7-.389a.835.835,0,0,0,1.094-.794V190.2A.833.833,0,0,0,543.11,189.4Zm-28.439,18.785-.176.032a93.771,93.771,0,0,1-16.5,1.979,35.9,35.9,0,0,1-10.329-1.4l-.151-.046V192.044l.269.076c9.109,2.517,18.421.834,26.64-.651l.251-.044Zm1.919-.347-.249.046v-7.535l.173-.032c6.928-1.247,16.412-2.955,25.352-.31l.151.046v7.486l-.268-.074C533.366,205.154,525.064,206.325,516.591,207.843Zm0-9.232-.249.046v-7.535l.173-.03c8.683-1.557,17.157-2.75,25.352-.325l.151.046v7.5l-.268-.074C533.366,195.922,525.061,197.095,516.591,198.611Zm-18.645,30.053a35.853,35.853,0,0,1-10.283-1.39l-.151-.046v-7.492l.269.076a37.751,37.751,0,0,0,10.162,1.3,96.177,96.177,0,0,0,16.968-2.035c8.849-1.6,18-3.253,26.956-.6l.151.046V226l-.268-.076c-9.114-2.52-18.273-.864-27.134.739A94.7,94.7,0,0,1,497.946,228.664Zm16.669-11.233a94.571,94.571,0,0,1-16.629,2,35.879,35.879,0,0,1-10.322-1.4l-.151-.046v-7.476l.269.074a37.683,37.683,0,0,0,10.16,1.3,96.144,96.144,0,0,0,16.959-2.033l.755-.136c8.088-1.461,17.255-3.119,26.213-.466l.151.046v7.486l-.268-.076C532.615,214.173,523.465,215.828,514.614,217.431Z" transform="translate(-485.841 -187.699)" fill="#ea4448"/>
      <path id="Path_233" data-name="Path 233" d="M491.018,195.994l-1.21.636.231-1.347-.979-.954,1.352-.2.6-1.226.6,1.226,1.352.2-.979.954.231,1.347Z" transform="translate(-483.987 -184.7)" fill="#ea4448"/>
      <path id="Path_234" data-name="Path 234" d="M501,195.994l-1.21.636.231-1.347-.979-.954,1.352-.2.6-1.226.6,1.226,1.353.2-.979.954.231,1.347Z" transform="translate(-478.235 -184.7)" fill="#ea4448"/>
      <path id="Path_235" data-name="Path 235" d="M496.042,196.932l-1.21.636.231-1.347-.979-.954,1.352-.2.6-1.226.6,1.226,1.352.2-.979.954.231,1.347Z" transform="translate(-481.093 -184.159)" fill="#ea4448"/>
      <path id="Path_236" data-name="Path 236" d="M491.018,199.8l-1.21.636.231-1.347-.979-.954,1.352-.2.6-1.226.6,1.226,1.352.2-.979.954.231,1.347Z" transform="translate(-483.987 -182.509)" fill="#ea4448"/>
      <path id="Path_237" data-name="Path 237" d="M501,199.8l-1.21.636.231-1.347-.979-.954,1.352-.2.6-1.226.6,1.226,1.353.2-.979.954.231,1.347Z" transform="translate(-478.235 -182.509)" fill="#ea4448"/>
      <path id="Path_238" data-name="Path 238" d="M496.042,200.736l-1.21.636.231-1.347-.979-.954,1.352-.2.6-1.226.6,1.226,1.352.2-.979.954.231,1.347Z" transform="translate(-481.093 -181.968)" fill="#ea4448"/>
    </g>
    <g id="Group_479" data-name="Group 479" transform="translate(463.416 159.371)">
      <g id="Group_476" data-name="Group 476" transform="translate(40.819)">
        <g id="Group_475" data-name="Group 475">
          <path id="Path_239" data-name="Path 239" d="M489.318,163.089l1.869-.61,1.032,3.163,3.633-1.184-1.032-3.164,1.869-.61,2.769,8.485-1.871.611-1.195-3.669-3.634,1.185,1.2,3.669-1.871.61Z" transform="translate(-489.318 -158.615)" fill="#ea4448"/>
          <path id="Path_240" data-name="Path 240" d="M500.012,159.853l1.617-.189,4.895,8.414-2.2.257-.985-1.787-3.443.4-.518,1.964-2.154.252Zm1.054,2.492-.755,2.881,2.167-.254Z" transform="translate(-484.768 -159.202)" fill="#ea4448"/>
          <path id="Path_241" data-name="Path 241" d="M505.4,159.371l2.663.236,3.234,6.512.025,0,.545-6.178,1.96.175-.788,8.888-2.561-.225-3.322-6.674-.025,0-.56,6.331-1.959-.173Z" transform="translate(-480.511 -159.371)" fill="#ea4448"/>
          <path id="Path_242" data-name="Path 242" d="M514.567,160.48l2.826.851a8.362,8.362,0,0,1,1.88.816,4.653,4.653,0,0,1,1.388,1.226,3.793,3.793,0,0,1,.692,1.663,4.686,4.686,0,0,1-.194,2.115,4.262,4.262,0,0,1-.944,1.711,4.089,4.089,0,0,1-1.455,1.009,4.852,4.852,0,0,1-1.779.355,6.188,6.188,0,0,1-1.907-.271L512,169.028Zm-.164,7.377.977.295a5.544,5.544,0,0,0,1.253.232,2.714,2.714,0,0,0,1.1-.148,2.247,2.247,0,0,0,.89-.615,3,3,0,0,0,.6-1.155,2.5,2.5,0,0,0,.093-1.163,2.265,2.265,0,0,0-.4-.957,2.922,2.922,0,0,0-.8-.734,4.29,4.29,0,0,0-1.084-.492l-1.109-.334Z" transform="translate(-476.256 -158.732)" fill="#ea4448"/>
          <path id="Path_243" data-name="Path 243" d="M526.49,167.465a1.929,1.929,0,0,0-.378-.812,2.383,2.383,0,0,0-.777-.622,2.454,2.454,0,0,0-2.013-.139,2.824,2.824,0,0,0-.906.556,3.375,3.375,0,0,0-.706.925,3.244,3.244,0,0,0-.364,1.113,2.922,2.922,0,0,0,.051,1.053,2.414,2.414,0,0,0,.432.9,2.3,2.3,0,0,0,.777.651,2.215,2.215,0,0,0,1.065.276,2.153,2.153,0,0,0,1.01-.266l.881,1.844a3.4,3.4,0,0,1-1.819.369,4.463,4.463,0,0,1-1.76-.5,5.509,5.509,0,0,1-1.554-1.188,4.4,4.4,0,0,1-.914-1.543,4.2,4.2,0,0,1-.2-1.775,5.416,5.416,0,0,1,1.806-3.439,4.251,4.251,0,0,1,1.576-.845,4.369,4.369,0,0,1,1.787-.121,5.447,5.447,0,0,1,1.861.607,4.716,4.716,0,0,1,.664.427,4.356,4.356,0,0,1,.613.57,3.623,3.623,0,0,1,.487.712,3.017,3.017,0,0,1,.292.851Z" transform="translate(-472.052 -156.782)" fill="#ea4448"/>
          <path id="Path_244" data-name="Path 244" d="M529.724,166.843l2.718,2.131a6,6,0,0,1,.936.9,3.082,3.082,0,0,1,.574,1.007,2.215,2.215,0,0,1,.061,1.106,2.82,2.82,0,0,1-.591,1.195,2.628,2.628,0,0,1-1.378.963,2.213,2.213,0,0,1-1.648-.227l-.539,4.367L528,176.833l.731-3.96-.764-.6-2.2,2.81-1.548-1.212Zm-.73,4.121.912.715c.14.109.292.221.455.331a1.755,1.755,0,0,0,.492.241.91.91,0,0,0,.495.011.893.893,0,0,0,.473-.348.864.864,0,0,0,.139-.974,1.538,1.538,0,0,0-.3-.418,4.279,4.279,0,0,0-.4-.364l-1.015-.793Z" transform="translate(-469.216 -155.068)" fill="#ea4448"/>
          <path id="Path_245" data-name="Path 245" d="M537.814,172.874l1.075,1.223-4.146,8.806-1.464-1.666.914-1.826-2.287-2.605-1.913.689-1.431-1.63Zm-1.451,2.282-2.8,1.016L535,177.811Z" transform="translate(-466.716 -151.594)" fill="#ea4448"/>
          <path id="Path_246" data-name="Path 246" d="M540.987,177.672l3.084,5.133-1.554.935-2.074-3.445-1.555.936,1.916,3.185-1.555.936-1.916-3.187-2.983,1.792-1.013-1.685Z" transform="translate(-463.966 -148.831)" fill="#ea4448"/>
          <path id="Path_247" data-name="Path 247" d="M543.172,185.94l-.947-2.364,1.615-.646,2.629,6.551-1.615.648-.947-2.364-6.669,2.676-.734-1.827Z" transform="translate(-462.143 -145.803)" fill="#ea4448"/>
          <path id="Path_248" data-name="Path 248" d="M546.758,189.6l1.3,5.924-1.773.388-.878-4-1.625.356.827,3.781-1.774.388-.826-3.779-1.773.386.925,4.225-1.774.388-1.346-6.145Z" transform="translate(-461.258 -141.96)" fill="#ea4448"/>
          <path id="Path_249" data-name="Path 249" d="M548.082,196.458l.087,2.95a8.379,8.379,0,0,1-.181,2.041,4.657,4.657,0,0,1-.725,1.705,3.8,3.8,0,0,1-1.36,1.182,4.67,4.67,0,0,1-2.068.482,4.248,4.248,0,0,1-1.919-.355,4.108,4.108,0,0,1-1.42-1.062,4.847,4.847,0,0,1-.9-1.576,6.158,6.158,0,0,1-.345-1.894l-.095-3.213Zm-7.051,2.173.032,1.02a5.455,5.455,0,0,0,.173,1.262,2.709,2.709,0,0,0,.49,1,2.213,2.213,0,0,0,.864.649,3,3,0,0,0,1.288.21,2.538,2.538,0,0,0,1.133-.279,2.316,2.316,0,0,0,.782-.686,2.879,2.879,0,0,0,.443-.99,4.443,4.443,0,0,0,.125-1.184l-.033-1.16Z" transform="translate(-460.613 -138.011)" fill="#ea4448"/>
        </g>
      </g>
      <g id="Group_478" data-name="Group 478" transform="translate(0 52.57)">
        <g id="Group_477" data-name="Group 477">
          <path id="Path_250" data-name="Path 250" d="M528.979,238.236l-1.961.865-3.618-4.657-.024.009.61,5.99-1.672.741-4.072-4.624-.022.011,1,5.979-1.822.807-1.225-9.219,1.6-.709,4.3,4.854.024-.011-.7-6.446,1.544-.682Z" transform="translate(-433.029 -170.604)" fill="#ea4448"/>
          <path id="Path_251" data-name="Path 251" d="M515.968,242.588l-1.91.471-2.132-8.668,1.909-.47Z" transform="translate(-435.478 -169.005)" fill="#ea4448"/>
          <path id="Path_252" data-name="Path 252" d="M508.185,241.865a1.381,1.381,0,0,0,.693.372,2.372,2.372,0,0,0,.788.058,1.923,1.923,0,0,0,.432-.1,1.653,1.653,0,0,0,.408-.2.9.9,0,0,0,.295-.318.734.734,0,0,0,.077-.44.714.714,0,0,0-.37-.58,2.84,2.84,0,0,0-.8-.277c-.318-.066-.657-.129-1.02-.189a4.179,4.179,0,0,1-1.031-.315,2.367,2.367,0,0,1-.842-.654,2.278,2.278,0,0,1-.44-1.207,2.885,2.885,0,0,1,.129-1.322,2.657,2.657,0,0,1,.643-1,3.2,3.2,0,0,1,1.031-.662,5.023,5.023,0,0,1,2.92-.241,4.04,4.04,0,0,1,1.475.7l-1.218,1.685a2.019,2.019,0,0,0-.829-.534,2.14,2.14,0,0,0-1.445,0,1.563,1.563,0,0,0-.421.219.957.957,0,0,0-.279.323.737.737,0,0,0-.074.425.756.756,0,0,0,.38.6,2.829,2.829,0,0,0,.815.309c.322.072.667.143,1.039.211a4.547,4.547,0,0,1,1.053.326,2.422,2.422,0,0,1,.851.641,2.069,2.069,0,0,1,.441,1.155,2.648,2.648,0,0,1-.142,1.283,2.706,2.706,0,0,1-.649.988,3.248,3.248,0,0,1-1.021.667,4.408,4.408,0,0,1-1.245.323,4.988,4.988,0,0,1-1.478-.047,3.365,3.365,0,0,1-1.344-.572Z" transform="translate(-438.686 -168.574)" fill="#ea4448"/>
          <path id="Path_253" data-name="Path 253" d="M500.913,241.569a1.949,1.949,0,0,0,.679.586,2.4,2.4,0,0,0,.963.246,2.477,2.477,0,0,0,1.04-.151,2.452,2.452,0,0,0,.853-.548,2.769,2.769,0,0,0,.6-.879,3.475,3.475,0,0,0,.139-2.3,2.789,2.789,0,0,0-.481-.939,2.414,2.414,0,0,0-.761-.646,2.34,2.34,0,0,0-.976-.274,2.226,2.226,0,0,0-1.086.188,2.134,2.134,0,0,0-.808.659l-1.565-1.321a3.451,3.451,0,0,1,1.507-1.083,4.423,4.423,0,0,1,1.811-.27,5.475,5.475,0,0,1,1.905.443,4.42,4.42,0,0,1,1.467,1.029,4.3,4.3,0,0,1,.911,1.54,5.424,5.424,0,0,1-.235,3.875,4.249,4.249,0,0,1-1.091,1.418,4.36,4.36,0,0,1-1.579.846,5.432,5.432,0,0,1-1.943.211,4.548,4.548,0,0,1-.783-.117,4.4,4.4,0,0,1-.793-.269,3.688,3.688,0,0,1-.738-.448,3.025,3.025,0,0,1-.616-.657Z" transform="translate(-442.733 -168.481)" fill="#ea4448"/>
          <path id="Path_254" data-name="Path 254" d="M500.928,239.624a5.022,5.022,0,0,1-.849,1.781,4.226,4.226,0,0,1-1.352,1.171,4.411,4.411,0,0,1-1.718.511,5.812,5.812,0,0,1-3.727-1,4.428,4.428,0,0,1-1.229-1.3,4.283,4.283,0,0,1-.582-1.689,4.979,4.979,0,0,1,.158-1.968,5.032,5.032,0,0,1,.849-1.782,4.263,4.263,0,0,1,1.354-1.169,4.4,4.4,0,0,1,1.716-.512,5.87,5.87,0,0,1,3.727,1,4.4,4.4,0,0,1,1.228,1.3,4.246,4.246,0,0,1,.583,1.691A5.044,5.044,0,0,1,500.928,239.624Zm-1.971-.529a3.268,3.268,0,0,0,.11-1.166,2.656,2.656,0,0,0-.3-1.021,2.6,2.6,0,0,0-.69-.807,3.16,3.16,0,0,0-2.206-.593,2.557,2.557,0,0,0-1,.351,2.613,2.613,0,0,0-.777.731,3.2,3.2,0,0,0-.487,1.064,3.27,3.27,0,0,0-.112,1.158,2.628,2.628,0,0,0,.306,1.026,2.558,2.558,0,0,0,.69.807,3.138,3.138,0,0,0,2.2.594,2.562,2.562,0,0,0,1.779-1.089A3.261,3.261,0,0,0,498.956,239.094Z" transform="translate(-447.28 -169.168)" fill="#ea4448"/>
          <path id="Path_255" data-name="Path 255" d="M490.827,241.817l-2.38-1.217-.561-7.248-.022-.013-2.819,5.525-1.752-.894,4.057-7.951,2.291,1.169.582,7.431.024.009,2.887-5.659,1.752.894Z" transform="translate(-451.969 -171.251)" fill="#ea4448"/>
          <path id="Path_256" data-name="Path 256" d="M480.022,232.368a1.4,1.4,0,0,0,.238.752,2.41,2.41,0,0,0,.525.589,2.014,2.014,0,0,0,.38.23,1.656,1.656,0,0,0,.437.137.927.927,0,0,0,.432-.022.735.735,0,0,0,.364-.262.716.716,0,0,0,.137-.674,2.894,2.894,0,0,0-.378-.756c-.183-.266-.381-.548-.6-.845a4.13,4.13,0,0,1-.52-.944,2.344,2.344,0,0,1-.147-1.056,2.244,2.244,0,0,1,.525-1.171,2.855,2.855,0,0,1,1.015-.857,2.608,2.608,0,0,1,1.155-.269,3.233,3.233,0,0,1,1.2.243,4.844,4.844,0,0,1,1.15.668,4.719,4.719,0,0,1,1.114,1.2,4.046,4.046,0,0,1,.57,1.525l-2.047.359a2.061,2.061,0,0,0-.221-.96,2.187,2.187,0,0,0-.618-.758,2.223,2.223,0,0,0-.421-.252,1.581,1.581,0,0,0-.452-.136.942.942,0,0,0-.426.036.723.723,0,0,0-.35.257.755.755,0,0,0-.146.692,2.871,2.871,0,0,0,.372.79q.267.414.6.876a4.546,4.546,0,0,1,.526.966,2.417,2.417,0,0,1,.164,1.053,2.09,2.09,0,0,1-.489,1.136,2.655,2.655,0,0,1-.994.823,2.78,2.78,0,0,1-1.157.254,3.281,3.281,0,0,1-1.2-.233,4.441,4.441,0,0,1-1.116-.637,4.968,4.968,0,0,1-1.028-1.062,3.387,3.387,0,0,1-.566-1.349Z" transform="translate(-454.987 -172.865)" fill="#ea4448"/>
          <path id="Path_257" data-name="Path 257" d="M476.335,232.031l-1.388-1.395,6.327-6.294,1.39,1.395Z" transform="translate(-456.776 -174.522)" fill="#ea4448"/>
          <path id="Path_258" data-name="Path 258" d="M474.705,230.581l-1.571-2.164,2.786-6.717-.016-.019-5.018,3.645-1.157-1.592,7.223-5.246,1.51,2.082-2.848,6.887.014.019,5.141-3.735,1.155,1.592Z" transform="translate(-459.78 -177.893)" fill="#ea4448"/>
          <path id="Path_259" data-name="Path 259" d="M472.408,217.85l-.831-1.615,3.681-.615.738,1.436Z" transform="translate(-458.716 -179.545)" fill="#ea4448"/>
          <path id="Path_260" data-name="Path 260" d="M469.382,206.24a4.259,4.259,0,0,1,1.478-.1,3.237,3.237,0,0,1,1.292.427,3.314,3.314,0,0,1,1.018.974,4.949,4.949,0,0,1,.744,3.179,3.277,3.277,0,0,1-.479,1.324,3.22,3.22,0,0,1-.968.957,4.23,4.23,0,0,1-1.368.567l-5.342,1.251-.448-1.916,5.265-1.232a2.192,2.192,0,0,0,.72-.3,1.864,1.864,0,0,0,.511-.5,1.721,1.721,0,0,0,.262-.651,1.78,1.78,0,0,0-.024-.739,1.749,1.749,0,0,0-.306-.667,1.675,1.675,0,0,0-.522-.46,1.814,1.814,0,0,0-.681-.222,2.123,2.123,0,0,0-.778.047l-5.265,1.231-.448-1.915Z" transform="translate(-463.055 -185.02)" fill="#ea4448"/>
          <path id="Path_261" data-name="Path 261" d="M465.756,201.589a1.38,1.38,0,0,0-.411.671,2.346,2.346,0,0,0-.109.783,2.2,2.2,0,0,0,.074.437,1.782,1.782,0,0,0,.18.419.963.963,0,0,0,.3.315.79.79,0,0,0,1.037-.232,2.9,2.9,0,0,0,.325-.78c.085-.31.169-.646.252-1a4.048,4.048,0,0,1,.377-1.01,2.359,2.359,0,0,1,.7-.8,2.265,2.265,0,0,1,1.231-.366,2.919,2.919,0,0,1,1.311.21,2.673,2.673,0,0,1,.958.7,3.191,3.191,0,0,1,.6,1.067,4.847,4.847,0,0,1,.244,1.306,4.776,4.776,0,0,1-.181,1.628,4.055,4.055,0,0,1-.786,1.428l-1.606-1.319a2.044,2.044,0,0,0,.583-.794,2.156,2.156,0,0,0,.091-1.444,1.638,1.638,0,0,0-.194-.432.94.94,0,0,0-.306-.3.72.72,0,0,0-.421-.1.764.764,0,0,0-.621.342,2.811,2.811,0,0,0-.356.794c-.093.317-.186.657-.276,1.024a4.58,4.58,0,0,1-.389,1.029,2.424,2.424,0,0,1-.69.812,2.08,2.08,0,0,1-1.18.37,2.672,2.672,0,0,1-1.273-.219,2.7,2.7,0,0,1-.946-.709,3.263,3.263,0,0,1-.6-1.061,4.478,4.478,0,0,1-.247-1.262,4.994,4.994,0,0,1,.139-1.472,3.364,3.364,0,0,1,.652-1.308Z" transform="translate(-463.416 -188.531)" fill="#ea4448"/>
          <path id="Path_262" data-name="Path 262" d="M463.783,197.063l.206-1.614,9.345-2.72-.28,2.2-1.975.523-.438,3.44,1.781.977-.274,2.15Zm2.673-.422,2.613,1.428.276-2.165Z" transform="translate(-463.205 -192.729)" fill="#ea4448"/>
        </g>
      </g>
    </g>
  </g>
</svg>
